<svg width="845" height="738" viewBox="0 0 845 738" fill="none" xmlns="http://www.w3.org/2000/svg">
<mask id="path-1-inside-1" fill="white">
<path d="M237.232 -174.133C172.456 -133.822 117.699 -79.3024 77.1054 -14.7025C36.512 49.8975 11.1459 122.885 2.92703 198.737C-5.2918 274.588 3.85203 351.315 29.6664 423.111C55.4808 494.906 97.2893 559.889 151.927 613.14C206.565 666.391 272.601 706.515 345.037 730.475C417.472 754.435 494.409 761.603 570.024 751.436C645.639 741.27 717.951 714.036 781.486 671.795C845.021 629.554 898.114 573.413 936.747 507.622L869.959 468.404C837.275 524.064 792.357 571.56 738.605 607.297C684.853 643.034 623.676 666.074 559.704 674.675C495.732 683.276 430.642 677.212 369.36 656.941C308.078 636.671 252.21 602.725 205.985 557.674C159.76 512.622 124.39 457.646 102.55 396.905C80.7106 336.165 72.9748 271.252 79.9281 207.08C86.8814 142.908 108.342 81.1591 142.684 26.5062C177.027 -28.1466 223.353 -74.271 278.155 -108.376L237.232 -174.133Z"/>
</mask>
<path d="M237.232 -174.133C172.456 -133.822 117.699 -79.3024 77.1054 -14.7025C36.512 49.8975 11.1459 122.885 2.92703 198.737C-5.2918 274.588 3.85203 351.315 29.6664 423.111C55.4808 494.906 97.2893 559.889 151.927 613.14C206.565 666.391 272.601 706.515 345.037 730.475C417.472 754.435 494.409 761.603 570.024 751.436C645.639 741.27 717.951 714.036 781.486 671.795C845.021 629.554 898.114 573.413 936.747 507.622L869.959 468.404C837.275 524.064 792.357 571.56 738.605 607.297C684.853 643.034 623.676 666.074 559.704 674.675C495.732 683.276 430.642 677.212 369.36 656.941C308.078 636.671 252.21 602.725 205.985 557.674C159.76 512.622 124.39 457.646 102.55 396.905C80.7106 336.165 72.9748 271.252 79.9281 207.08C86.8814 142.908 108.342 81.1591 142.684 26.5062C177.027 -28.1466 223.353 -74.271 278.155 -108.376L237.232 -174.133Z" stroke="#86BE5C" stroke-width="200" mask="url(#path-1-inside-1)"/>
</svg>
